<svg width="52" height="52" viewBox="0 0 52 52" fill="none" xmlns="http://www.w3.org/2000/svg">
<g filter="url(#filter0_d)">
<path d="M48 22C48 28.0751 45.5376 33.5751 41.5564 37.5563C37.5751 41.5375 32.0751 44 26 44C19.9249 44 14.4249 41.5375 10.4437 37.5563C6.46243 33.5751 4 28.0751 4 22C4 15.9248 6.46243 10.4248 10.4437 6.44362C14.4249 2.4624 19.9249 -3.05176e-05 26 -3.05176e-05C32.0751 -3.05176e-05 37.5751 2.4624 41.5564 6.44362C45.5376 10.4248 48 15.9248 48 22Z" fill="white"/>
<g clip-path="url(#clip0)">
<path d="M36 15.7988C35.2563 16.125 34.4637 16.3412 33.6375 16.4462C34.4875 15.9388 35.1363 15.1412 35.4412 14.18C34.6488 14.6525 33.7738 14.9863 32.8412 15.1725C32.0887 14.3713 31.0162 13.875 29.8462 13.875C27.5763 13.875 25.7487 15.7175 25.7487 17.9763C25.7487 18.3012 25.7762 18.6137 25.8438 18.9112C22.435 18.745 19.4188 17.1113 17.3925 14.6225C17.0387 15.2363 16.8313 15.9388 16.8313 16.695C16.8313 18.115 17.5625 19.3737 18.6525 20.1025C17.9937 20.09 17.3475 19.8988 16.8 19.5975C16.8 19.61 16.8 19.6262 16.8 19.6425C16.8 21.635 18.2212 23.29 20.085 23.6712C19.7512 23.7625 19.3875 23.8062 19.01 23.8062C18.7475 23.8062 18.4825 23.7913 18.2337 23.7362C18.765 25.36 20.2725 26.5538 22.065 26.5925C20.67 27.6838 18.8988 28.3412 16.9813 28.3412C16.645 28.3412 16.3225 28.3263 16 28.285C17.8162 29.4563 19.9688 30.125 22.29 30.125C29.835 30.125 33.96 23.875 33.96 18.4575C33.96 18.2762 33.9538 18.1013 33.945 17.9275C34.7588 17.35 35.4425 16.6288 36 15.7988Z" fill="#AFB1B8"/>
</g>
</g>
<defs>
<filter id="filter0_d" x="0" y="-3.05176e-05" width="52" height="52" filterUnits="userSpaceOnUse" color-interpolation-filters="sRGB">
<feFlood flood-opacity="0" result="BackgroundImageFix"/>
<feColorMatrix in="SourceAlpha" type="matrix" values="0 0 0 0 0 0 0 0 0 0 0 0 0 0 0 0 0 0 127 0"/>
<feOffset dy="4"/>
<feGaussianBlur stdDeviation="2"/>
<feColorMatrix type="matrix" values="0 0 0 0 0 0 0 0 0 0 0 0 0 0 0 0 0 0 0.25 0"/>
<feBlend mode="normal" in2="BackgroundImageFix" result="effect1_dropShadow"/>
<feBlend mode="normal" in="SourceGraphic" in2="effect1_dropShadow" result="shape"/>
</filter>
<clipPath id="clip0">
<rect width="20" height="20" fill="white" transform="translate(16 12)"/>
</clipPath>
</defs>
</svg>
